<?xml version="1.0" encoding="utf-8"?>
<!-- Generator: Adobe Illustrator 16.0.5, SVG Export Plug-In . SVG Version: 6.00 Build 0)  -->
<!DOCTYPE svg PUBLIC "-//W3C//DTD SVG 1.1//EN" "http://www.w3.org/Graphics/SVG/1.1/DTD/svg11.dtd">
<svg version="1.1" id="Layer_1" xmlns="http://www.w3.org/2000/svg" xmlns:xlink="http://www.w3.org/1999/xlink" x="0px" y="0px"
	 width="289px" height="500px" viewBox="0 0 289 500" enable-background="new 0 0 289 500" xml:space="preserve">
<g>
	<path fill="none" stroke="#d4232b" stroke-width="3.2127" d="M179.479,446.29c0,0-36.495,15.544-90.213,2.055"/>
	<path fill="none" stroke="#d4232b" stroke-width="3.1326" d="M95.46,403.526c0,0,63.665,10.156,78.832-2.455v6.892l6.608,7.209
		l-5.575,10.958l6.173,6.165l-6.173,8.904l3.921,5.48c0,0-15.585,22.604-20.195,26.713l-12.827,13.698l-20.441,1.716l-38.621-39.411
		l5.797-8.196l-5.666-8.447l5.666-7.992l-6.271-9.588l8.773-6.851V403.526z"/>
	<path fill="none" stroke="#d4232b" stroke-width="3.2127" d="M179.238,414.844c0,0-37.059,14.764-91.119,0"/>
	<path fill="none" stroke="#d4232b" stroke-width="3.2127" d="M179.532,432.016c0,0-37.059,14.764-91.118,0"/>
	<path fill="#d4232b" d="M103.262,64.04c0,3-7.22,15.662-7.22,15.662c0.445-10.219-6.109-21.326-14.106-22.992
		s-15.995,8.33-15.995,8.33s2.667-9.664-6.664-6.664c-9.331,3-45.43,49.984-48.318,55.981c-2.888,5.999,3.666,5.666,5.998,4.999
		c2.333-0.667,19.328-22.659,19.328-22.659l10.33,28.769c0,0,2.333,7.554,4.666,24.88c2.332,17.328,10.996,3.666,10.996,3.666
		c3-20.66-19.326-64.313-19.326-64.313l14.995-17.994c0,0,3.333,82.64,26.992,73.754c23.658-8.886,12.329-54.76,12.329-54.76
		s4.332-4.332,8.997-15.329C110.927,64.373,103.262,61.041,103.262,64.04z M85.268,136.683
		c-6.998,2.665-17.994-20.993-15.662-44.986c0,0,16.995,9.33,20.66,4.887C90.267,96.584,92.266,134.017,85.268,136.683z
		 M89.601,88.698c-12.663,6.332-15.773-7.997-14.662-17.661c1.111-9.664,5.665-8.997,6.664-8.997c0,0,3.666,2.333,8.331,12.996
		C94.599,85.7,89.601,88.698,89.601,88.698z"/>
	<path fill="#d4232b" d="M163.576,85.033c0,0,1.001,7.664-8.664,20.438C145.249,118.245,142.25,85.7,142.25,85.7
		c11.997-11.664,24.326-54.649,8.665-55.648c-15.662-1-19.328,42.986-19.328,42.986c-2.666-21.66,4-48.318,4-48.318
		s18.66-3.332,25.658-3.999s6.998-4.332,4.665-6.331c-2.333-2-7.331-1.667-7.331-1.667c-25.659-0.666-62.98,19.438-62.98,19.438
		c-11.33,4.554-0.666,8.886-0.666,8.886l26.991-13.33c0,0-1.999,17.328,1.001,59.314c2.998,41.986,9.329,40.32,13.661,37.654
		c4.332-2.665,0-21.437,0-21.437s11.329,11.108,20.993,8.442c9.664-2.666,9.664-10.33,10.329-21.327
		C168.575,79.368,163.576,85.033,163.576,85.033z M147.914,42.047c6.332-1.333,2.666,21.326-8.996,38.321
		C138.918,80.368,141.583,43.379,147.914,42.047z"/>
	<path fill="#d4232b" d="M195.564,94.696c0,0-2.997,0.334-4.33,3c-1.333,2.666-6.553,4.665-5.332-8.664
		c1.223-13.329,8.33-55.981,2.332-59.314c-5.998-3.332-6.997,9.108-6.997,9.108s0.443-6.109-7.442-4.443
		c-7.887,1.666-31.878,68.978-2.221,69.644c0,0,7.998-2,7.998-7.331c0,0,2.664,13.662,15.327,5.998
		C194.899,102.693,201.786,97.251,195.564,94.696z M177.239,84.699c-7.331,0.778-8.997-21.326,4.664-37.654
		C181.903,47.045,184.57,83.922,177.239,84.699z"/>
	<path fill="#d4232b" d="M218.559,31.717c0,0-3.665-15.662-15.662-5.998c-11.995,9.664-23.992,101.3,7.664,77.641
		c31.657-23.658,31.324-80.973,31.324-80.973s-2.333-15.995-8.998,3.333c-6.664,19.326-21.992,91.97-9.33,91.637
		c12.663-0.333,7.331-30.991,14.996-37.655c7.664-6.665,4.109,11.329,4.109,11.329s-11.44,44.542,6.22,41.098
		c17.662-3.443,18.994-37.321,16.995-42.208c-2-4.887-4.555-6.887-5.443,2.777s-3.888,31.656-8.22,31.656
		c-4.331,0-9.329-3.999-4.331-32.657c4.997-28.656-1.888-27.324-7.998-23.658c-6.108,3.666-14.328,30.323-14.328,30.323
		s2.554-61.98,10.44-65.979c7.886-3.999-6.775,48.651-24.437,59.313c-17.661,10.664-15.66-57.314-2.665-56.647
		s1.999,9.775,6.663,12.329C220.224,49.933,218.559,31.717,218.559,31.717"/>
	<path fill="#d4232b" d="M38.284,152.678c0,0-10.664,91.97,18.995,92.969c0,0,8.663-0.333,9.663-9.663c1-9.331-5.999-7.665-6.332-3
		c-0.333,4.666-17.994,16.661-14.995-53.316C48.614,109.692,38.284,152.678,38.284,152.678"/>
	<path fill="#d4232b" d="M85.602,171.338c-6.665-12.996-12.329-11.33-25.991-0.666c-13.663,10.663-31.324,1.999-31.324,1.999
		s-12.218-2.333-0.333,7.998c11.885,10.329,31.323-0.667,31.323-0.667c-6.665,28.324,13.663,77.307,28.657,54.316
		C102.929,211.325,92.266,184.334,85.602,171.338z M81.602,229.652c-2.73,1.518-9.051-22.932-9.908-25.301
		c-0.053-0.014-0.088-0.023-0.088-0.023c-0.03-0.238,0.004-0.209,0.088,0.023c1.046,0.279,12.004,3.085,13.908-1.356
		C87.601,198.33,84.602,227.986,81.602,229.652z M79.937,198.33c-19.993-1.667-5.332-26.992-5.332-26.992
		S99.931,199.996,79.937,198.33z"/>
	<g>
		<path fill="#d4232b" d="M107.722,143.372c0.126-0.089,0.206-0.135,0.206-0.135C107.68,143.378,107.631,143.403,107.722,143.372z"
			/>
		<path fill="#d4232b" d="M153.802,134.684c1.73-20.112-8.997-21.326-19.994-7.665c-10.996,13.662-5.887,30.657-5.887,30.657
			s-15.995,1.333-15.329-10.996c0-5.229-4.392-3.474-4.871-3.308c-0.829,0.585-3.817,3.162-1.793,8.75
			c2.332,6.442,14.994,12.885,20.66,12.885l-2,31.323c0,0-10.997-13.996-18.994-2s-1.999,42.987,11.997,38.322
			c13.995-4.666,11.33-17.329,11.33-17.329s7.664,5.666,16.995,0c9.329-5.664-2-5.442-2-5.442s-10.664,4.109-11.996-4.887
			l2.332-42.986C134.252,162.008,152.913,145.013,153.802,134.684z M146.249,125.021c14.328,0.999-11.664,30.656-11.664,30.656
			S131.92,124.02,146.249,125.021z M118.924,221.988c-9.663,10.33-9.996-23.992-5.664-25.437c4.332-1.443,9.663,11.108,9.663,11.108
			C123.589,211.658,118.924,221.988,118.924,221.988z"/>
	</g>
	<path fill="#d4232b" d="M203.445,198.207c-7.648,2.011-2.677-39.406-1.53-47.983c1.147-8.579-1.529-7.506-4.589-8.31
		c-3.059-0.805-3.44,4.423-3.44,4.423c-1.529-3.888-10.261-1.609-10.261-1.609c-17.146,7.209-15.261,46.242-15.261,46.242
		s-2.395,2.01-8,10.455s-8.161-12.868-7.778-20.508c0.382-7.639,1.146-5.336,13.001-15.614c11.855-10.278,9.178-27.783-6.119-25.399
		c-15.295,2.384-19.884,35.678-19.884,35.678l1.912,28.257c20.087,26.731,29.446-2.413,29.446-2.413
		c9.177,10.856,18.355-2.011,18.355-2.011c1.911,9.248,14.148,8.444,19.502,5.629C214.152,202.228,211.093,196.197,203.445,198.207z
		 M161.763,145.934c8.796,1.608,3.824,20.951-13.178,22.115C148.585,168.049,152.968,144.326,161.763,145.934z M188.914,193.381
		c0,0-17.574,20.507-13.375-8.444c4.198-28.951,17.645-43.024,17.645-29.755L188.914,193.381z"/>
	<path fill="#d4232b" d="M202.162,188.282c0,0,10.483-31.784,9.794-46.449c-0.689-14.663,14.267-2.418,14.267-2.418
		s-1.912-0.613,0,12.796c1.914,13.409,0.966,31.36,5.99,26.988c5.021-4.372,12.801,12.303-0.923,11.91
		c-9.881-0.283-11.139-21.128-11.954-31.167c-0.317-3.904-1.91-3.732-1.91-3.732s-0.163,45.151-14.85,40.071
		C198.456,194.856,202.162,188.282,202.162,188.282"/>
	<path fill="#d4232b" d="M231.774,137.112c2.314,5.938,4.33,32.45,0.466,49.053c0,0,4.404,5.959,6.125-0.897
		c1.721-6.855,1.288-38.002,8.35-41.022c0,0-7.502,48.428,11.796,42.083c19.298-6.346,14.798-23.193,14.798-23.193
		s-0.68-4.488-3.65,0.447c-2.973,4.936-0.839,8.7-10.854,14.302c-10.015,5.602-1.436-46.11-3.946-47.125
		c-2.511-1.016-8.125-11.219-15.382,19.809c0,0-0.162-12.404-1.952-14.507C234.605,132.631,230.342,133.431,231.774,137.112"/>
	<path fill="#d4232b" d="M156.579,238.48c-1,1.681-3.666,2.689-3.666,2.689c0.445-10.311-6.331-19.165-14.328-20.846
		c-7.998-1.681-13.33,13.114-13.33,13.114s1.333-8.742-7.998-5.717c-9.33,3.026-48.094,27.236-50.983,33.287
		c-2.888,6.052,5.999,12.442,8.331,11.769c2.333-0.672,18.05-16.146,18.05-16.146l10.33,29.028c0,0,2.333,7.621,4.666,25.105
		c2.332,17.484,10.996,3.698,10.996,3.698c2.999-20.847-19.327-64.892-19.327-64.892l23.603-8.064c0,0-5.332,58.093,18.327,49.127
		c23.66-8.967,13.995-39.04,13.995-39.04s2,2.018,6.664-9.078C166.575,231.419,158.122,235.885,156.579,238.48z M131.309,234.756
		c1.111-7.598,5.666-7.074,6.665-7.074c0,0,3.665,1.834,8.33,10.216c4.666,8.384-0.332,10.741-0.332,10.741
		C133.308,253.618,130.198,242.353,131.309,234.756z M143.892,283.861c-8.43,1.764-17.597-11.458-14.787-27.328
		c0,0,16.393,3.741,20.809,0.804C149.914,257.337,152.323,282.099,143.892,283.861z"/>
	<path fill="#d4232b" d="M98.931,389.899c0,0,19.994-29.504,7.997-60.94c-11.996-31.436-24.325,36.399,20.66,64.251
		c0,0,6.331,4.136,4.665-7.998c0,0,1.666-4.688,5.332,1.93c3.666,6.618,1.667,14.615-13.662,8.273
		c-15.329-6.343-52.317-54.047-33.322-82.173c18.994-28.127,27.945,38.379,25.991,47.704c-1.444,6.894-9.997,29.229-13.329,30.057
		C99.93,391.83,98.931,393.21,98.931,389.899"/>
	<path fill="#d4232b" d="M116.295,325.984c0,0,16.251,57.524,21.633,54.448c5.38-3.075,5.352-5.763,5.352-5.763L125,332.007
		c0,0-3.901-12.854,4.262-10.917c8.163,1.935,13.108,23.292,14.965,30.548c1.856,7.254,5.515,19.297,10.984,15.449
		c5.47-3.849-9.705-38.445-18.884-46.199c-9.177-7.753-15.778-2.804-15.908,4.226C120.42,325.113,115.801,318.55,116.295,325.984"/>
	<path fill="#d4232b" d="M139.251,293.632c-3.444-1.333-10.997-1.333-6.999,4.333c3.999,5.664,12.329,38.543,12.329,38.543
		l5.332,10.107c3.998-2.666-6.665-29.657-3.333-30.991c3.333-1.331,5.999,3.667,5.999,3.667l-0.333,2.998
		c-6.666,40.654,19.327,46.651,19.994,28.324C172.906,332.286,142.695,294.965,139.251,293.632z M165.242,350.28
		c-7.331,9.331-7.997-22.659-7.997-22.659S172.573,340.949,165.242,350.28z"/>
	<path fill="#d4232b" d="M182.682,277.304c-5.777-32.323-18.439-16.439-21.438-5.221c-2.283,8.546-1.09,13.086-0.39,14.77
		c-0.903-1.704-3.251-5.525-5.608-4.217c-2.998,1.665,0,6.664,0,6.664s23.882,66.313,22.326,79.308
		c-1.555,12.996,3.998,7.664,4.665-1.665c0.668-9.331-10.662-51.65-10.662-51.65S188.457,309.627,182.682,277.304z M169.352,307.293
		c0,0-9.107-25.88,1.889-31.655C182.236,269.861,179.237,302.963,169.352,307.293z"/>
	<path fill="#d4232b" d="M178.905,266.975c0,0,1.332-24.66-0.668-29.991c-1.998-5.333,5.665-4.665,6.665-2.999
		c1.001,1.666,1.001,53.648,11.33,41.653c10.33-11.996,9.329,7.332-0.667,7.664c-9.996,0.333-15.772-2.776-17.66-10.33"/>
	<path fill="#d4232b" d="M178.572,218.323c0,0-4.665,7.108,1.332,9.33c5.999,2.223,7.997-7.664,5.664-10.996
		C183.235,213.325,178.572,218.323,178.572,218.323"/>
	<path fill="#d4232b" d="M191.234,269.639l1.666-38.32c0,0,1.999-7.331,10.664-3.666c0,0,1.332,38.321,12.995,18.661
		c11.662-19.66,14.329-43.319,8.996-45.319c-5.331-1.999-17.993,34.323,1.668,33.99c0,0,7.33-2,6.996-11.997
		c0,0,2.333-4.665,3.666,1s-0.334,21.326-12.33,17.661c-11.996-3.665-17.661-13.995-11.996-31.323
		c5.665-17.327,21.327-21.993,16.661,9.664c-4.665,31.657-10.662,36.321-23.325,39.321c0,0-6.664,1.998-7.997-17.995
		c0,0,1,26.658-2,29.657C193.899,273.971,191.566,272.306,191.234,269.639"/>
</g>
</svg>
